<?xml version="1.0" encoding="UTF-8" standalone="no"?>
<svg width="23px" height="17px" viewBox="0 0 23 17" version="1.1" xmlns="http://www.w3.org/2000/svg" xmlns:xlink="http://www.w3.org/1999/xlink">
    <!-- Generator: Sketch 39 (31667) - http://www.bohemiancoding.com/sketch -->
    <title>icon_cart</title>
    <desc>Created with Sketch.</desc>
    <defs></defs>
    <g id="Patterns081716" stroke="none" stroke-width="1" fill="none" fill-rule="evenodd">
        <g id="Icons" transform="translate(-439.000000, -343.000000)" fill="#000000">
            <g id="icon_cart" transform="translate(439.000000, 343.000000)">
                <path d="M0.92,10.88 L12.88,10.88 C13.28135,10.88 13.61922,10.625 13.74503,10.2716267 L13.74848,10.27276 L16.96848,1.20609333 L16.96503,1.20496 C16.99815,1.11112 17.02,1.01184 17.02,0.906666667 C17.02,0.40596 16.60807,0 16.1,0 L0.92,0 C0.41193,0 0,0.40596 0,0.906666667 L0,9.97333333 C0,10.47404 0.41193,10.88 0.92,10.88 L0.92,10.88 Z M12.22726,9.06666667 L1.84,9.06666667 L1.84,1.81333333 L14.80326,1.81333333 L12.22726,9.06666667 L12.22726,9.06666667 Z" id="Shape"></path>
                <path d="M22.08,0 L19.09,0 C18.6875,0 18.34894,0.25636 18.22405,0.61132 L18.2206,0.60996 L14.29473,11.7866667 L0.92,11.7866667 C0.41193,11.7866667 0,12.1926267 0,12.6933333 C0,13.19404 0.41193,13.6 0.92,13.6 L14.95,13.6 C15.3525,13.6 15.69106,13.34364 15.81595,12.98868 L15.81963,12.99004 L19.74527,1.81333333 L22.08,1.81333333 C22.58807,1.81333333 23,1.40737333 23,0.906666667 C23,0.40596 22.58807,0 22.08,0 L22.08,0 Z" id="Shape"></path>
                <ellipse id="Oval" cx="1.38" cy="15.64" rx="1.38" ry="1.36"></ellipse>
                <ellipse id="Oval" cx="13.8" cy="15.64" rx="1.38" ry="1.36"></ellipse>
            </g>
        </g>
    </g>
</svg>